<svg xmlns:dc="http://purl.org/dc/elements/1.1/" xmlns:cc="http://creativecommons.org/ns#" xmlns:rdf="http://www.w3.org/1999/02/22-rdf-syntax-ns#" xmlns:svg="http://www.w3.org/2000/svg" xmlns="http://www.w3.org/2000/svg" viewBox="0 0 64 64" fill="none"><metadata><rdf:RDF><cc:Work><dc:format>image/svg+xml</dc:format><dc:type rdf:resource="http://purl.org/dc/dcmitype/StillImage"/><dc:title>Miniavs - Free Avatar Creator</dc:title><dc:creator><cc:Agent><dc:title>Webpixels</dc:title></cc:Agent></dc:creator><dc:source>https://www.figma.com/community/file/923211396597067458</dc:source><cc:license rdf:resource="https://creativecommons.org/licenses/by/4.0/"/></cc:Work><cc:License rdf:about="https://creativecommons.org/licenses/by/4.0/"><cc:permits rdf:resource="https://creativecommons.org/ns#Reproduction"/><cc:permits rdf:resource="https://creativecommons.org/ns#Distribution"/><cc:permits rdf:resource="https://creativecommons.org/ns#DerivativeWorks"/><cc:requires rdf:resource="https://creativecommons.org/ns#Notice"/><cc:requires rdf:resource="https://creativecommons.org/ns#Attribution"/></cc:License></rdf:RDF></metadata><mask id="avatarsRadiusMask"><rect width="64" height="64" rx="0" ry="0" x="0" y="0" fill="#fff"/></mask><g mask="url(#avatarsRadiusMask)"><g><path d="M46.07 40.409c.47 7.492.939 14.986-11.07 15.55v9.912S31.357 68 26.5 68 18 64.523 18 64.523V45.096a27.765 27.765 0 0 1-.412-3.113 5 5 0 0 1-.89-9.812C15.36 22.643 17.508 13 32.001 13c14.587 0 14.235 11.08 13.957 19.815-.037 1.145-.072 2.25-.072 3.284 0 1.403.091 2.856.183 4.31Z" fill="rgba(245, 208, 197, 1)"/><path d="M17.588 41.984c-.158-1.97-.158-3.974-.158-5.884a46.698 46.698 0 0 1-.733-3.928 5.002 5.002 0 0 0 .89 9.812ZM18 45.094V64.52s3.643 3.477 8.5 3.477 8.5-2.13 8.5-2.13v-9.91c-.48.022-.979.033-1.498.033-10.792 0-14.337-4.946-15.502-10.897Z" fill="#000" fill-opacity=".07"/><path d="M34.932 55.96c-.459.021-.935.032-1.43.032-7.248 0-11.227-2.231-13.412-5.5.503 4.823 3.162 8.493 8.293 8.493.49 0 .944.004 1.365.007 3.796.033 4.922.043 5.184-3.031Z" fill="#000" fill-opacity=".07"/><rect x="36" y="41" width="3" height="2" rx="1" fill="#000" fill-opacity=".07"/></g><g><rect x="7" y="60" width="40" height="23" rx="9" fill="rgba(224, 90, 51, 1)"/></g><g><path d="M0 10c7.997-7.997 13.002 3 13.002 3L11 21s-2 2.5 0 10-2.5 11.5-2.5 11.5-3.5 2.502-6.5.502c-3-2-3.397-3.922-3-7.5.5-4.5 2-3.002 2-7.502s-8.997-10.004-1-18Z" fill="rgba(173, 58, 32, 1)"/><path d="m13.03 13.181 5.508 2.382-3.572 8.26-5.507-2.38s-.96-1.943.54-4.942c1.497-3 3.032-3.32 3.032-3.32Z" fill="#FF6C98"/><path d="m18 41-1.323-8.823A5 5 0 0 0 18 42v8.3a22.137 22.137 0 0 1-4.083-4.83c-1.7-2.704-2.888-5.804-3.482-9.093a27.526 27.526 0 0 1 .04-9.97c.62-3.283 1.833-6.37 3.556-9.055 1.722-2.684 3.915-4.903 6.43-6.506 2.514-1.604 5.292-2.555 8.147-2.789a17.03 17.03 0 0 1 1.868-.05 20.422 20.422 0 0 1 7.795 1.325c2.305.88 4.4 2.169 6.164 3.794a17.48 17.48 0 0 1 4.119 5.677A16.378 16.378 0 0 1 49.93 24H50v4.286s-.329.152-.998.366v8.488s0 1.404-1.5 2.456c-.52.365-1.218.645-1.91.856a32.6 32.6 0 0 0 .297-4.353c0-1.034.035-2.139.071-3.284.036-1.118.073-2.275.08-3.441-1.852.339-4.367.626-7.578.626C30.614 30 26 28.286 26 28.286v-.999c-.68 1.064-1.416 2.35-2 3.713-.75 1.75-.75 3.544-.75 5.051 0 1.508 0 2.73-.75 3.335C21 40.596 18 41 18 41Z" fill="rgba(173, 58, 32, 1)"/></g><g transform="translate(1)"><path d="M27.93 46a1 1 0 0 1 1-1h9.142a1 1 0 0 1 1 1 5 5 0 0 1-5 5H32.93a5 5 0 0 1-5-5Z" fill="#66253C"/><path d="M35.756 50.708a4.992 4.992 0 0 1-1.684.29H32.93a5 5 0 0 1-4.996-4.8c.764-.285 1.898-.253 3.017-.22.356.01.71.02 1.05.02 2.21 0 4 1.568 4 3.5 0 .426-.087.833-.245 1.21Z" fill="#B03E67"/><path d="M29 45h10v1a1 1 0 0 1-1 1h-8a1 1 0 0 1-1-1v-1Z" fill="#fff"/></g><g transform="translate(0 -1)"><g fill="rgba(173, 58, 32, 1)"><rect x="30" y="36" width="3" height="4" rx="1.5"/><rect x="40" y="36" width="3" height="4" rx="1.5"/></g><g/></g><g/><g/></g></svg>